# xmcd
#
# Track frame offsets:
#	150
#	19445
#	35676
#	53865
#	73478
#	89655
#	108968
#	135065
#	155958
#
# Disc length: 2329 seconds
#
# Revision: 0
# Processed by: cddbd v1.5.2PL0 Copyright (c) Steve Scherf et al.
# Submitted via: EZCDAudioConverter 1.3.4.1
#
DISCID=82091709
DTITLE=Gladys Knight - Another Journey
DYEAR=2013
DGENRE=R&B
TTITLE0=Old School
TTITLE1=I Who Have Nothing
TTITLE2=The Dream
TTITLE3=All In Due Time
TTITLE4=Settle
TTITLE5=I L-O-V-E Y-O-U
TTITLE6=I Hope You Dance
TTITLE7=I Who Have Nothing (REMIX)
TTITLE8=Searching for the Real Thing
EXTD=
EXTT0=
EXTT1=
EXTT2=
EXTT3=
EXTT4=
EXTT5=
EXTT6=
EXTT7=
EXTT8=
PLAYORDER=
